<?xml version="1.0" standalone="no"?>
<!DOCTYPE svg PUBLIC "-//W3C//DTD SVG 20010904//EN"
 "http://www.w3.org/TR/2001/REC-SVG-20010904/DTD/svg10.dtd">
<svg version="1.0" xmlns="http://www.w3.org/2000/svg"
 width="256.000000pt" height="256.000000pt" viewBox="0 0 256.000000 256.000000"
 preserveAspectRatio="xMidYMid meet">

<g transform="translate(0.000000,256.000000) scale(0.100000,-0.100000)"
fill="#000000" stroke="none">
<path d="M555 2544 c-38 -8 -113 -36 -165 -61 -79 -38 -108 -59 -181 -132 -73
-73 -94 -102 -132 -181 -77 -160 -77 -160 -77 -890 0 -730 0 -730 77 -890 38
-79 59 -108 132 -181 73 -73 102 -94 181 -132 160 -77 160 -77 890 -77 730 0
730 0 890 77 79 38 108 59 181 132 73 73 94 102 132 181 77 160 77 160 77 890
0 730 0 730 -77 890 -38 79 -59 108 -132 181 -73 73 -102 94 -181 132 -160 77
-159 77 -897 76 -530 0 -661 -3 -718 -15z m1416 -148 c209 -45 380 -216 425
-425 20 -97 20 -1285 0 -1382 -45 -209 -216 -380 -425 -425 -97 -20 -1285 -20
-1382 0 -209 45 -380 216 -425 425 -20 97 -20 1285 0 1382 44 207 215 380 420
424 91 20 1294 20 1387 1z"/>
<path d="M1960 2225 c-81 -25 -138 -98 -147 -189 -4 -43 0 -60 24 -106 41 -77
103 -115 187 -114 36 0 73 7 92 16 89 48 136 147 113 240 -16 71 -74 133 -142
153 -60 18 -68 18 -127 0z m116 -174 c15 -30 7 -59 -22 -77 -46 -31 -108 22
-85 72 21 47 84 50 107 5z"/>
<path d="M1135 1966 c-252 -59 -442 -231 -523 -473 -23 -69 -26 -94 -26 -213
0 -119 3 -144 26 -213 72 -216 239 -383 455 -455 69 -23 94 -26 213 -26 119 0
144 3 213 26 216 72 383 239 455 455 23 69 26 94 26 213 0 119 -3 144 -26 213
-72 216 -242 385 -455 454 -97 31 -266 40 -358 19z m257 -147 c203 -42 385
-224 427 -427 70 -336 -196 -662 -539 -662 -298 0 -550 252 -550 550 0 247
182 477 423 536 66 16 171 17 239 3z"/>
</g>
</svg>
