<?xml version="1.0" standalone="no"?>
<!DOCTYPE svg PUBLIC "-//W3C//DTD SVG 20010904//EN"
 "http://www.w3.org/TR/2001/REC-SVG-20010904/DTD/svg10.dtd">
<svg version="1.0" xmlns="http://www.w3.org/2000/svg"
 width="310.000000pt" height="163.000000pt" viewBox="0 0 310.000000 163.000000"
 preserveAspectRatio="xMidYMid meet">

<g transform="translate(0.000000,163.000000) scale(0.100000,-0.100000)"
fill="#000000" stroke="none">
<path d="M565 1008 c-33 -19 -44 -41 -45 -85 0 -52 19 -72 98 -102 31 -12 65
-29 74 -38 25 -22 22 -59 -4 -77 -12 -9 -17 -16 -9 -16 26 0 71 57 71 90 0 52
-17 70 -106 110 -78 36 -84 41 -84 69 0 20 8 35 22 45 26 18 13 21 -17 4z"/>
<path d="M662 1005 c14 -8 36 -31 48 -50 12 -20 24 -35 25 -33 2 2 1 24 -2 51
l-6 47 -46 0 c-46 -1 -46 -1 -19 -15z"/>
<path d="M1683 1002 c14 -15 17 -42 17 -147 0 -105 -3 -132 -17 -147 -15 -17
-13 -18 51 -18 l67 0 -15 22 c-17 24 -23 138 -7 138 5 0 30 -36 55 -80 l47
-80 43 0 44 0 -54 81 -53 81 32 22 c42 28 48 72 15 111 -19 21 -35 28 -73 31
-28 2 -43 1 -35 -2 78 -33 77 -154 -1 -154 l-31 0 4 80 3 80 -54 0 c-52 0 -53
-1 -38 -18z"/>
<path d="M788 823 c2 -59 8 -114 14 -120 11 -14 52 -16 82 -4 19 7 19 8 -2 13
-20 6 -21 13 -24 109 l-3 104 -35 3 -35 3 3 -108z"/>
<path d="M911 898 c5 -18 9 -67 9 -108 -1 -41 -1 -81 -1 -87 1 -8 16 -13 43
-13 33 0 39 3 30 12 -8 8 -12 49 -12 120 l0 108 -39 0 -40 0 10 -32z"/>
<path d="M1028 917 c10 -11 12 -52 10 -161 l-3 -146 40 0 41 0 -4 39 c-4 37
-3 39 31 45 70 13 111 86 91 158 -14 49 -50 68 -140 75 -71 6 -78 5 -66 -10z
m124 -38 c21 -40 24 -149 6 -167 -7 -7 -20 -12 -30 -12 -16 0 -18 11 -18 111
0 120 9 134 42 68z"/>
<path d="M1311 904 c-83 -69 -45 -214 56 -214 35 0 83 36 83 62 0 9 -3 9 -12
0 -18 -18 -63 -15 -88 6 -36 30 -35 140 3 164 9 6 9 8 0 8 -6 0 -25 -12 -42
-26z"/>
<path d="M1384 908 c9 -12 16 -35 16 -50 0 -25 4 -28 31 -28 29 0 31 2 25 28
-7 30 -49 72 -72 72 -13 0 -13 -3 0 -22z"/>
<path d="M1488 919 c16 -18 17 -200 0 -217 -9 -9 1 -12 48 -11 32 0 53 3 47 6
-9 3 -13 36 -13 116 1 101 2 110 15 93 8 -11 15 -30 15 -43 0 -13 3 -23 8 -23
15 1 42 28 42 42 0 28 -29 41 -103 46 -59 4 -70 2 -59 -9z"/>
<path d="M2078 920 c41 -17 29 -54 -35 -102 -63 -48 -76 -77 -47 -109 17 -19
40 -24 67 -13 13 5 13 8 -4 25 -27 27 -24 64 11 101 l29 33 1 -82 0 -83 39 0
39 0 -9 38 c-5 20 -8 68 -8 106 2 80 -11 96 -70 95 -32 0 -33 -1 -13 -9z"/>
<path d="M2215 811 l0 -121 50 0 c38 0 46 3 37 12 -14 14 -17 218 -3 218 11 0
21 -25 21 -56 0 -29 10 -30 40 -6 21 17 21 18 3 41 -15 18 -32 24 -83 28 l-65
5 0 -121z"/>
<path d="M2448 914 c-51 -27 -75 -113 -47 -167 30 -58 108 -77 146 -34 33 37
39 51 15 38 -61 -32 -112 7 -112 85 0 29 7 59 16 72 18 26 17 26 -18 6z"/>
<path d="M2504 914 c14 -14 20 -36 19 -71 -1 -8 11 -13 28 -13 23 0 29 4 29
23 -1 26 -17 49 -47 65 -31 17 -47 15 -29 -4z"/>
<path d="M2011 898 l-14 -23 24 20 c13 11 26 21 28 22 2 2 -2 3 -10 3 -8 0
-20 -10 -28 -22z"/>
<path d="M520 749 l0 -54 51 -2 c48 -1 50 0 29 14 -12 8 -35 33 -51 56 l-29
40 0 -54z"/>
</g>
</svg>
